<?xml version="1.0" standalone="no"?>
<!DOCTYPE svg PUBLIC "-//W3C//DTD SVG 20010904//EN"
 "http://www.w3.org/TR/2001/REC-SVG-20010904/DTD/svg10.dtd">
<svg version="1.0" xmlns="http://www.w3.org/2000/svg"
 width="900.000000pt" height="870.000000pt" viewBox="0 0 900.000000 870.000000"
 preserveAspectRatio="xMidYMid meet">

<g transform="translate(0.000000,870.000000) scale(0.100000,-0.100000)"
fill="#000000" stroke="none">
<path d="M4464 8288 c-5 -7 -20 -35 -34 -63 -36 -71 -162 -196 -235 -233 -47
-23 -154 -62 -172 -62 -2 0 -3 19 -3 43 0 67 41 140 102 179 l51 33 -59 3
c-103 5 -281 -46 -414 -120 -114 -64 -239 -166 -320 -263 -34 -40 -80 -80
-120 -104 -209 -127 -381 -354 -470 -619 -53 -159 -71 -271 -77 -472 -7 -220
1 -290 63 -565 46 -204 231 -945 238 -953 2 -2 22 6 44 17 39 20 71 56 86 96
15 41 26 188 36 475 26 754 112 1019 411 1279 105 91 160 123 274 160 163 53
314 68 790 81 361 9 405 16 525 74 35 17 92 56 125 87 l60 57 -4 -119 c-8
-292 73 -619 213 -857 55 -92 130 -196 161 -222 9 -7 26 -32 38 -54 21 -40 22
-54 28 -471 6 -469 8 -481 65 -542 40 -42 66 -43 82 0 116 294 201 625 268
1043 34 212 39 496 11 659 -35 201 -104 383 -201 529 -60 90 -210 241 -298
299 -61 40 -215 117 -234 117 -7 0 -63 51 -126 113 -162 161 -326 264 -516
326 -138 45 -370 74 -388 49z"/>
<path d="M5508 3140 l4 -300 -25 -42 c-54 -92 -168 -183 -392 -315 -66 -39
-149 -92 -185 -119 -87 -64 -197 -175 -249 -253 -94 -138 -170 -337 -172 -448
0 -21 -4 -47 -9 -58 -7 -15 -9 -9 -10 25 -2 118 -66 317 -146 455 -62 107
-210 253 -319 316 -337 194 -451 271 -518 349 l-37 44 0 318 c0 175 -3 318 -7
318 -14 0 -166 -119 -265 -206 -101 -89 -258 -259 -373 -401 -40 -50 -73 -83
-85 -83 -10 0 -92 -18 -182 -41 -317 -79 -708 -222 -1073 -390 -468 -217 -754
-444 -885 -703 -65 -129 -70 -159 -70 -433 l0 -243 3990 0 3990 0 0 241 c0
274 -7 316 -71 440 -82 158 -238 319 -439 454 -260 174 -700 375 -1150 525
-189 63 -508 150 -550 150 -10 0 -48 38 -92 93 -116 143 -276 314 -383 407
-125 109 -251 200 -279 200 l-21 0 3 -300z"/>
</g>
</svg>
