<svg width="104" height="20" viewBox="0 0 104 20" fill="none" xmlns="http://www.w3.org/2000/svg">
<path d="M16.704 2.248L10.56 19H6.48L0.336 2.248H3.936L8.544 15.568L13.128 2.248H16.704ZM20.4225 4.12C19.8305 4.12 19.3345 3.936 18.9345 3.568C18.5505 3.184 18.3585 2.712 18.3585 2.152C18.3585 1.592 18.5505 1.128 18.9345 0.759999C19.3345 0.375999 19.8305 0.183999 20.4225 0.183999C21.0145 0.183999 21.5025 0.375999 21.8865 0.759999C22.2865 1.128 22.4865 1.592 22.4865 2.152C22.4865 2.712 22.2865 3.184 21.8865 3.568C21.5025 3.936 21.0145 4.12 20.4225 4.12ZM22.0785 5.704V19H18.7185V5.704H22.0785ZM30.4862 19.216C29.3982 19.216 28.4222 19.024 27.5582 18.64C26.6942 18.24 26.0062 17.704 25.4942 17.032C24.9982 16.36 24.7262 15.616 24.6782 14.8H28.0622C28.1262 15.312 28.3742 15.736 28.8062 16.072C29.2542 16.408 29.8062 16.576 30.4622 16.576C31.1022 16.576 31.5982 16.448 31.9502 16.192C32.3182 15.936 32.5022 15.608 32.5022 15.208C32.5022 14.776 32.2782 14.456 31.8302 14.248C31.3982 14.024 30.7022 13.784 29.7422 13.528C28.7502 13.288 27.9342 13.04 27.2942 12.784C26.6702 12.528 26.1262 12.136 25.6622 11.608C25.2142 11.08 24.9902 10.368 24.9902 9.472C24.9902 8.736 25.1982 8.064 25.6142 7.456C26.0462 6.848 26.6542 6.368 27.4382 6.016C28.2382 5.664 29.1742 5.488 30.2462 5.488C31.8302 5.488 33.0942 5.888 34.0382 6.688C34.9822 7.472 35.5022 8.536 35.5982 9.88H32.3822C32.3342 9.352 32.1102 8.936 31.7102 8.632C31.3262 8.312 30.8062 8.152 30.1502 8.152C29.5422 8.152 29.0702 8.264 28.7342 8.488C28.4142 8.712 28.2542 9.024 28.2542 9.424C28.2542 9.872 28.4782 10.216 28.9262 10.456C29.3742 10.68 30.0702 10.912 31.0142 11.152C31.9742 11.392 32.7662 11.64 33.3902 11.896C34.0142 12.152 34.5502 12.552 34.9982 13.096C35.4622 13.624 35.7022 14.328 35.7182 15.208C35.7182 15.976 35.5022 16.664 35.0702 17.272C34.6542 17.88 34.0462 18.36 33.2462 18.712C32.4622 19.048 31.5422 19.216 30.4862 19.216ZM42.3883 8.464V14.896C42.3883 15.344 42.4923 15.672 42.7003 15.88C42.9243 16.072 43.2923 16.168 43.8043 16.168H45.3643V19H43.2523C40.4203 19 39.0043 17.624 39.0043 14.872V8.464H37.4203V5.704H39.0043V2.416H42.3883V5.704H45.3643V8.464H42.3883ZM46.917 12.304C46.917 10.96 47.181 9.768 47.709 8.728C48.253 7.688 48.981 6.888 49.893 6.328C50.821 5.768 51.853 5.488 52.989 5.488C53.981 5.488 54.845 5.688 55.581 6.088C56.333 6.488 56.933 6.992 57.381 7.6V5.704H60.765V19H57.381V17.056C56.949 17.68 56.349 18.2 55.581 18.616C54.829 19.016 53.957 19.216 52.965 19.216C51.845 19.216 50.821 18.928 49.893 18.352C48.981 17.776 48.253 16.968 47.709 15.928C47.181 14.872 46.917 13.664 46.917 12.304ZM57.381 12.352C57.381 11.536 57.221 10.84 56.901 10.264C56.581 9.672 56.149 9.224 55.605 8.92C55.061 8.6 54.477 8.44 53.853 8.44C53.229 8.44 52.653 8.592 52.125 8.896C51.597 9.2 51.165 9.648 50.829 10.24C50.509 10.816 50.349 11.504 50.349 12.304C50.349 13.104 50.509 13.808 50.829 14.416C51.165 15.008 51.597 15.464 52.125 15.784C52.669 16.104 53.245 16.264 53.853 16.264C54.477 16.264 55.061 16.112 55.605 15.808C56.149 15.488 56.581 15.04 56.901 14.464C57.221 13.872 57.381 13.168 57.381 12.352ZM63.1826 12.304C63.1826 10.96 63.4466 9.768 63.9746 8.728C64.5186 7.688 65.2466 6.888 66.1586 6.328C67.0866 5.768 68.1186 5.488 69.2546 5.488C70.2466 5.488 71.1106 5.688 71.8466 6.088C72.5986 6.488 73.1986 6.992 73.6466 7.6V5.704H77.0306V19H73.6466V17.056C73.2146 17.68 72.6146 18.2 71.8466 18.616C71.0946 19.016 70.2226 19.216 69.2306 19.216C68.1106 19.216 67.0866 18.928 66.1586 18.352C65.2466 17.776 64.5186 16.968 63.9746 15.928C63.4466 14.872 63.1826 13.664 63.1826 12.304ZM73.6466 12.352C73.6466 11.536 73.4866 10.84 73.1666 10.264C72.8466 9.672 72.4146 9.224 71.8706 8.92C71.3266 8.6 70.7426 8.44 70.1186 8.44C69.4946 8.44 68.9186 8.592 68.3906 8.896C67.8626 9.2 67.4306 9.648 67.0946 10.24C66.7746 10.816 66.6146 11.504 66.6146 12.304C66.6146 13.104 66.7746 13.808 67.0946 14.416C67.4306 15.008 67.8626 15.464 68.3906 15.784C68.9346 16.104 69.5106 16.264 70.1186 16.264C70.7426 16.264 71.3266 16.112 71.8706 15.808C72.4146 15.488 72.8466 15.04 73.1666 14.464C73.4866 13.872 73.6466 13.168 73.6466 12.352ZM83.6723 7.768C84.1043 7.064 84.6643 6.512 85.3523 6.112C86.0563 5.712 86.8563 5.512 87.7523 5.512V9.04H86.8643C85.8083 9.04 85.0083 9.288 84.4643 9.784C83.9363 10.28 83.6723 11.144 83.6723 12.376V19H80.3123V5.704H83.6723V7.768Z" fill="black"/>
<path d="M100.047 19L96.4234 13.36L93.1354 19H89.3434L94.6234 10.552L89.2714 2.248H93.1354L96.7594 7.864L100.023 2.248H103.815L98.5594 10.672L103.911 19H100.047Z" fill="#0A66C2"/>
</svg>
