<svg width="26" height="6" viewBox="0 0 26 6" fill="none" xmlns="http://www.w3.org/2000/svg">
<path d="M15.3328 3.19984C15.3328 3.70088 15.1842 4.19068 14.9059 4.60728C14.6275 5.02389 14.2319 5.34859 13.7689 5.54033C13.306 5.73207 12.7967 5.78224 12.3053 5.68449C11.8138 5.58674 11.3624 5.34547 11.0081 4.99117C10.6539 4.63688 10.4126 4.18548 10.3148 3.69407C10.2171 3.20265 10.2672 2.69328 10.459 2.23037C10.6507 1.76747 10.9754 1.37181 11.392 1.09345C11.8086 0.815082 12.2984 0.666504 12.7995 0.666504C13.4714 0.666504 14.1157 0.933408 14.5908 1.4085C15.0659 1.88359 15.3328 2.52796 15.3328 3.19984ZM2.66615 0.666504C2.1651 0.666504 1.67531 0.815082 1.2587 1.09345C0.842098 1.37181 0.517394 1.76747 0.325652 2.23037C0.13391 2.69328 0.0837417 3.20265 0.181491 3.69407C0.27924 4.18548 0.520517 4.63688 0.87481 4.99117C1.2291 5.34547 1.6805 5.58674 2.17192 5.68449C2.66334 5.78224 3.17271 5.73207 3.63561 5.54033C4.09852 5.34859 4.49417 5.02389 4.77254 4.60728C5.0509 4.19068 5.19948 3.70088 5.19948 3.19984C5.19948 2.52796 4.93258 1.88359 4.45748 1.4085C3.98239 0.933408 3.33803 0.666504 2.66615 0.666504ZM22.9328 0.666504C22.4318 0.666504 21.942 0.815082 21.5254 1.09345C21.1088 1.37181 20.7841 1.76747 20.5923 2.23037C20.4006 2.69328 20.3504 3.20265 20.4482 3.69407C20.5459 4.18548 20.7872 4.63688 21.1415 4.99117C21.4958 5.34547 21.9472 5.58674 22.4386 5.68449C22.93 5.78224 23.4394 5.73207 23.9023 5.54033C24.3652 5.34859 24.7608 5.02389 25.0392 4.60728C25.3176 4.19068 25.4661 3.70088 25.4661 3.19984C25.4661 2.52796 25.1992 1.88359 24.7241 1.4085C24.2491 0.933408 23.6047 0.666504 22.9328 0.666504Z" fill="black"/>
</svg>
